HIERARCHY
ROOT SimulationBone
{
	OFFSET 0.000000 0.000000 0.000000
	CHANNELS 6 Xposition Yposition Zposition Zrotation Yrotation Xrotation 
	JOINT Hips
	{
		OFFSET 0.000000 0.000000 0.000000
		CHANNELS 6 Xposition Yposition Zposition Zrotation Yrotation Xrotation 
		JOINT LeftUpLeg
		{
			OFFSET 0.103457 1.857818 10.548502
			CHANNELS 3 Zrotation Yrotation Xrotation
			JOINT LeftLeg
			{
				OFFSET 43.500000 -0.000011 -0.000004
				CHANNELS 3 Zrotation Yrotation Xrotation
				JOINT LeftFoot
				{
					OFFSET 42.372192 -0.000004 -0.000008
					CHANNELS 3 Zrotation Yrotation Xrotation
					JOINT LeftToe
					{
						OFFSET 17.300014 0.000006 0.000001
						CHANNELS 3 Zrotation Yrotation Xrotation
						End Site
						{
							OFFSET 0.000000 0.000000 0.000000
						}
					}
				}
			}
		}
		JOINT RightUpLeg
		{
			OFFSET 0.103457 1.857817 -10.548505
			CHANNELS 3 Zrotation Yrotation Xrotation
			JOINT RightLeg
			{
				OFFSET 43.500046 -0.000004 0.000011
				CHANNELS 3 Zrotation Yrotation Xrotation
				JOINT RightFoot
				{
					OFFSET 42.372257 0.000000 0.000015
					CHANNELS 3 Zrotation Yrotation Xrotation
					JOINT RightToe
					{
						OFFSET 17.300003 -0.000000 0.000002
						CHANNELS 3 Zrotation Yrotation Xrotation
						End Site
						{
							OFFSET 0.000000 0.000000 0.000000
						}
					}
				}
			}
		}
		JOINT Spine
		{
			OFFSET 6.901961 -2.603721 -0.000001
			CHANNELS 3 Zrotation Yrotation Xrotation
			JOINT Spine1
			{
				OFFSET 12.588108 0.000002 -0.000001
				CHANNELS 3 Zrotation Yrotation Xrotation
				JOINT Spine2
				{
					OFFSET 12.343199 -0.000020 0.000006
					CHANNELS 3 Zrotation Yrotation Xrotation
					JOINT Neck
					{
						OFFSET 25.832905 0.000017 0.000000
						CHANNELS 3 Zrotation Yrotation Xrotation
						JOINT Head
						{
							OFFSET 11.766604 -0.000006 0.000004
							CHANNELS 3 Zrotation Yrotation Xrotation
							End Site
							{
								OFFSET 0.000000 0.000000 0.000000
							}
						}
					}
					JOINT LeftShoulder
					{
						OFFSET 19.745903 -1.480350 6.000100
						CHANNELS 3 Zrotation Yrotation Xrotation
						JOINT LeftArm
						{
							OFFSET 11.284130 -0.000016 -0.000016
							CHANNELS 3 Zrotation Yrotation Xrotation
							JOINT LeftForeArm
							{
								OFFSET 33.000046 0.000004 0.000031
								CHANNELS 3 Zrotation Yrotation Xrotation
								JOINT LeftHand
								{
									OFFSET 25.199999 0.000027 0.000001
									CHANNELS 3 Zrotation Yrotation Xrotation
									End Site
									{
										OFFSET 0.000000 0.000000 0.000000
									}
								}
							}
						}
					}
					JOINT RightShoulder
					{
						OFFSET 19.746094 -1.480375 -6.000080
						CHANNELS 3 Zrotation Yrotation Xrotation
						JOINT RightArm
						{
							OFFSET 11.284131 -0.000016 -0.000017
							CHANNELS 3 Zrotation Yrotation Xrotation
							JOINT RightForeArm
							{
								OFFSET 33.000095 0.000009 0.000020
								CHANNELS 3 Zrotation Yrotation Xrotation
								JOINT RightHand
								{
									OFFSET 25.199789 0.000132 0.000423
									CHANNELS 3 Zrotation Yrotation Xrotation
									End Site
									{
										OFFSET 0.000000 0.000000 0.000000
									}
								}
							}
						}
					}
				}
			}
		}
	}
}
MOTION
Frames: 11
Frame Time: 0.016667
-315.498787 0.000000 465.797469 0.000000 23.247373 0.000000 2.095899 89.042313 -0.498479 100.142383 -0.141613 176.777638 -165.119782 -8.264695 -177.354222 -43.632914 -2.983932 4.202048 79.412744 -4.217008 -5.121623 21.454539 0.003095 -0.000001 165.485061 12.634294 -177.364290 -34.965274 4.992823 -5.646546 73.833190 4.909558 3.169841 21.454555 -0.003107 -0.000018 9.144889 0.112534 -1.558587 8.272419 0.336015 -3.105117 7.954813 0.317402 -3.107079 22.856248 -4.188981 -7.501651 -11.744962 14.730479 -12.482969 102.971753 -87.083865 75.556439 -8.659327 43.623888 -5.136717 -34.770498 -15.133194 1.338559 15.174017 -12.037033 8.166990 -143.085617 66.486616 39.548299 19.710911 -49.075499 -19.774006 -32.310079 15.211649 -1.316419 13.795859 9.571741 15.751688 
-317.312140 0.000000 465.778438 0.000000 22.610992 0.000000 2.481262 88.690092 -0.320755 100.362803 -0.463046 177.476794 -164.343103 -8.810997 -177.592012 -41.591369 -3.000299 3.569678 77.194319 -3.437503 -3.515382 21.454544 0.003090 0.000001 164.745211 13.078370 -177.648725 -35.069608 4.880116 -5.633108 73.766229 5.054153 3.648298 21.454559 -0.003108 -0.000017 9.182704 -0.082660 -1.677604 8.353203 -0.044192 -3.356748 8.035711 -0.064312 -3.356414 22.737831 -5.013993 -7.255341 -11.185910 14.520919 -12.051095 97.798988 -86.117976 80.814920 -12.776694 44.037830 -7.101846 -33.615538 -14.883986 1.299158 15.169599 -11.572083 7.783227 -144.661448 66.686098 37.911332 19.570738 -51.224000 -20.896213 -30.346401 15.051084 -1.266860 14.545633 9.819858 15.721496 
-319.108030 0.000000 465.699196 0.000000 21.931589 0.000000 2.677193 88.306107 -0.211588 100.507777 -0.602586 178.316883 -163.930496 -9.429704 -177.351312 -39.522414 -3.196773 4.033885 76.203784 -3.523789 -2.559303 21.454550 0.003090 0.000001 164.001735 13.387203 -178.032146 -34.893209 4.858129 -5.497895 73.423057 5.150631 4.213498 21.454560 -0.003108 -0.000017 9.242601 -0.217392 -1.778353 8.477112 -0.304101 -3.567797 8.159689 -0.325491 -3.565892 22.616717 -5.766586 -7.044904 -10.485901 14.161391 -11.597940 96.531022 -85.211022 82.162777 -17.608593 44.058592 -9.041718 -32.154627 -14.502623 1.240950 15.274065 -10.790957 7.835833 -146.275015 66.929792 36.233981 19.372692 -53.244003 -22.296202 -28.910998 14.869971 -1.226791 15.144660 9.233608 14.304177 
-320.885316 0.000000 465.564446 0.000000 21.210726 0.000000 2.709492 87.921895 -0.159424 100.578763 -0.655876 179.214044 -163.823886 -9.926336 -176.679468 -37.579711 -3.526533 5.032330 76.269204 -4.057053 -1.974862 21.454554 0.003092 0.000000 163.260533 13.632926 -178.532004 -34.388030 4.891170 -5.265470 72.781792 5.220884 4.859701 21.454558 -0.003107 -0.000017 9.323081 -0.317424 -1.854483 8.641469 -0.495629 -3.727450 8.324084 -0.517981 -3.724386 22.485365 -6.391429 -6.878310 -9.705800 13.711121 -11.164517 96.938146 -84.355153 81.831735 -22.914864 43.776377 -10.980546 -30.621186 -14.046412 1.179386 15.458047 -9.789173 8.528021 -147.856733 67.183912 34.589742 19.099726 -55.080328 -23.948535 -28.132470 14.718356 -1.202402 15.378967 7.759355 11.385029 
-322.642853 0.000000 465.378892 0.000000 20.449916 0.000000 2.604120 87.568993 -0.153294 100.572498 -0.717715 -179.916167 -163.958227 -10.100202 -175.626007 -35.915463 -3.897804 6.009871 77.240798 -4.588659 -1.516003 21.454557 0.003094 -0.000001 162.526086 13.887299 -179.167883 -33.505871 4.941884 -4.959862 71.820791 5.288429 5.581247 21.454558 -0.003107 -0.000017 9.422741 -0.408562 -1.899665 8.844023 -0.670868 -3.824987 8.526654 -0.693807 -3.820865 22.336520 -6.833159 -6.763726 -8.904372 13.231230 -10.789424 98.098288 -83.525964 80.745878 -28.476431 43.282696 -12.964538 -29.247139 -13.573700 1.123752 15.704644 -8.664899 10.061052 -149.324613 67.418076 33.064490 18.721792 -56.678994 -25.817585 -28.139117 14.646190 -1.198284 15.119805 5.296980 6.872565 
-324.379499 0.000000 465.147237 0.000000 19.650654 0.000000 2.390236 87.275403 -0.181264 100.476718 -0.874559 -179.154220 -164.270500 -9.801216 -174.297935 -34.628891 -4.241557 6.494538 78.962259 -4.737612 -0.994984 21.454557 0.003093 -0.000001 161.803811 14.211609 -179.951199 -32.193097 4.974180 -4.611733 70.495266 5.374731 6.342118 21.454559 -0.003108 -0.000017 9.537063 -0.515321 -1.909880 9.076390 -0.879351 -3.854335 8.759016 -0.902461 -3.848956 22.170829 -7.056798 -6.704734 -8.144652 12.790288 -10.504652 99.485107 -82.702191 79.433031 -34.093403 42.667735 -15.008229 -28.236911 -13.140034 1.077645 15.994278 -7.532172 12.563934 -150.600197 67.613581 31.739797 18.207035 -58.001190 -27.844495 -29.022708 14.700974 -1.218870 14.375666 1.801171 0.774966 
-326.094110 0.000000 464.874182 0.000000 18.814450 0.000000 2.109400 87.054977 -0.225663 100.261062 -1.181021 -178.564131 -164.751826 -9.093094 -173.010836 -33.637000 -4.717763 6.315351 81.232525 -4.415228 -0.467293 21.454553 0.003092 -0.000001 161.109614 14.627101 179.146873 -30.373526 4.962108 -4.277770 68.666056 5.485790 6.986118 21.454560 -0.003109 -0.000017 9.648873 -0.656868 -1.890158 9.304803 -1.159695 -3.827142 8.987395 -1.182633 -3.820074 22.020240 -7.108827 -6.685529 -7.513898 12.480800 -10.324559 100.627120 -81.886631 78.364036 -39.559444 42.041709 -16.910459 -27.691493 -12.787261 1.045043 16.254187 -6.555157 15.881576 -151.660101 67.787104 30.639113 17.565232 -59.063109 -29.917324 -30.727664 14.921959 -1.265248 13.327309 -2.342817 -6.621228 
-327.785544 0.000000 464.564433 0.000000 17.942850 0.000000 1.799793 86.914444 -0.271297 99.898344 -1.656828 -178.187315 -165.393744 -8.088781 -172.079565 -32.788985 -5.447311 5.454173 83.825691 -3.658062 -0.049844 21.454545 0.003093 -0.000001 160.469425 15.134639 178.170259 -27.992004 4.884770 -3.993219 66.323386 5.629170 7.451658 21.454559 -0.003110 -0.000018 9.739880 -0.844006 -1.848289 9.492982 -1.533588 -3.759864 9.175500 -1.556114 -3.750543 21.918984 -7.056194 -6.683839 -7.085027 12.381000 -10.248293 101.258387 -81.098601 77.803092 -44.721861 41.525945 -18.449736 -27.660897 -12.544215 1.028943 16.370955 -5.880524 19.771260 -152.511145 67.962772 29.754581 16.827180 -59.899551 -31.909908 -33.148465 15.325252 -1.341476 12.136902 -6.667724 -14.846409 
-329.452657 0.000000 464.222691 0.000000 17.037464 0.000000 1.471454 86.846184 -0.312666 99.395687 -2.215769 -177.995783 -166.099805 -6.874300 -171.608967 -31.861284 -6.138551 4.234973 86.455857 -2.738410 0.094136 21.454543 0.003094 0.000000 159.940518 15.690095 177.183781 -25.100085 4.720545 -3.677199 64.076626 5.869982 8.176745 21.454558 -0.003108 -0.000018 9.800072 -1.059529 -1.794095 9.620264 -1.966267 -3.670559 9.302674 -1.988248 -3.658629 21.880642 -6.966486 -6.671885 -6.851173 12.487182 -10.239131 101.442769 -80.385985 77.682337 -49.544815 41.153060 -19.414236 -28.093679 -12.401110 1.027212 16.200541 -5.568331 23.915545 -153.208683 68.162006 29.028402 16.074585 -60.569781 -33.696481 -36.118753 15.844926 -1.443030 11.013962 -10.692470 -22.675053 
-331.094306 0.000000 463.853659 0.000000 16.099985 0.000000 1.131488 86.836841 -0.345245 98.787473 -2.753211 -177.944309 -166.773762 -5.542067 -171.587458 -30.691923 -6.492079 3.016681 88.857514 -1.908544 -0.114809 21.454551 0.003092 0.000001 159.572735 16.231872 176.250161 -21.823516 4.471490 -3.234322 62.597802 6.170398 9.366243 21.454557 -0.003103 -0.000017 9.826434 -1.280179 -1.736218 9.679839 -2.410658 -3.574206 9.362116 -2.432048 -3.559595 21.908011 -6.896446 -6.624217 -6.776256 12.760310 -10.253129 101.320621 -79.792902 77.857616 -54.018371 40.935611 -19.623809 -28.913274 -12.344230 1.038374 15.605904 -5.620612 28.006841 -153.820952 68.397096 28.389784 15.396640 -61.131130 -35.162744 -39.454459 16.385642 -1.559929 9.971718 -13.940280 -28.841214 
-332.709348 0.000000 463.462042 0.000000 15.132211 0.000000 0.803535 86.864464 -0.359756 98.170862 -3.194503 -177.984293 -167.383334 -4.221497 -171.764177 -29.364765 -6.585330 1.928853 90.934085 -1.172023 -0.267310 21.454560 0.003090 0.000001 159.345199 16.663802 175.393630 -18.479852 4.264001 -2.610521 62.160806 5.922629 9.799505 21.454558 -0.003102 -0.000016 9.835420 -1.486647 -1.677016 9.703898 -2.827444 -3.473850 9.386024 -2.848219 -3.456722 21.981181 -6.858878 -6.530881 -6.783426 13.105131 -10.245809 101.172014 -79.325388 78.048190 -58.148685 40.837044 -19.046565 -30.042405 -12.383711 1.061992 14.549397 -5.951801 31.839090 -154.409799 68.651109 27.775303 14.841601 -61.621603 -36.223692 -42.960612 16.811607 -1.685320 9.078307 -16.258208 -32.764690 
